<?xml version="1.0" encoding="UTF-8"?>
<svg width="654px" height="474px" viewBox="0 0 654 474" version="1.1" xmlns="http://www.w3.org/2000/svg" xmlns:xlink="http://www.w3.org/1999/xlink">
    <!-- Generator: Sketch 56.2 (81672) - https://sketch.com -->
    <title>hero_image</title>
    <desc>Created with Sketch.</desc>
    <defs>
        <linearGradient x1="49.9999708%" y1="99.9916514%" x2="49.9999708%" y2="-0.00417431959%" id="linearGradient-1">
            <stop stop-color="#808080" stop-opacity="0.25" offset="0%"></stop>
            <stop stop-color="#808080" stop-opacity="0.12" offset="54%"></stop>
            <stop stop-color="#808080" stop-opacity="0.1" offset="100%"></stop>
        </linearGradient>
        <linearGradient x1="50.0013999%" y1="100.021262%" x2="50.0013999%" y2="0.00124655235%" id="linearGradient-2">
            <stop stop-color="#808080" stop-opacity="0.25" offset="0%"></stop>
            <stop stop-color="#808080" stop-opacity="0.12" offset="54%"></stop>
            <stop stop-color="#808080" stop-opacity="0.1" offset="100%"></stop>
        </linearGradient>
        <linearGradient x1="49.990597%" y1="100.028959%" x2="49.990597%" y2="-0.00439913216%" id="linearGradient-3">
            <stop stop-color="#808080" stop-opacity="0.25" offset="0%"></stop>
            <stop stop-color="#808080" stop-opacity="0.12" offset="54%"></stop>
            <stop stop-color="#808080" stop-opacity="0.1" offset="100%"></stop>
        </linearGradient>
        <linearGradient x1="0.00820912631%" y1="50.0387138%" x2="99.9803797%" y2="50.0387138%" id="linearGradient-4">
            <stop stop-color="#808080" stop-opacity="0.25" offset="0%"></stop>
            <stop stop-color="#808080" stop-opacity="0.12" offset="54%"></stop>
            <stop stop-color="#808080" stop-opacity="0.1" offset="100%"></stop>
        </linearGradient>
    </defs>
    <g id="hero_image" stroke="none" stroke-width="1" fill="none" fill-rule="evenodd">
        <g id="undraw_social_strategy_1wuq">
            <g id="Group" opacity="0.4" transform="translate(271.000000, 61.000000)">
                <path d="M17.0255172,172.647661 C14.7289655,154.596096 21.9227586,136.015433 17.6462069,118.343573 C14.3565517,104.692855 4.61172414,93.2954696 1.40896552,79.6198527 C-3.29586207,59.352302 7.46689655,38.5369797 21.2027586,22.9752855 C30.6496552,12.2501657 42.5048276,2.5147698 56.637931,0.566445672 C65.3648276,-0.678489871 74.3337931,1.24493554 82.3903448,4.81167587 C98.9518829,12.2581547 111.678738,26.2775049 117.521379,43.5104972 C119.383448,49.0504604 120.457241,54.8456354 122.747586,60.2175322 C126.688966,69.473628 133.92,76.9432413 138.42,85.9441252 C144.485649,98.2825774 145.078404,112.614999 140.052414,125.414807 C134.844828,138.449282 123.914483,149.354917 122.30069,163.30442 C121.177241,173.313702 124.901379,184.331381 120.022759,193.189098 C116.335862,199.874401 108.744828,203.248177 101.557241,205.775396 C84.8358621,211.651492 61.4855172,221.106777 44.7082759,212.099669 C30.0413793,204.225451 19.1482759,189.317348 17.0255172,172.647661 Z" id="Path" fill="#ABB6AC" fill-rule="nonzero"></path>
                <path d="M63.9248276,185.482947 C63.9248276,185.482947 88.5413793,175.523462 91.6448276,169.921252 C94.7482759,164.319042 99.0931034,131.32825 99.0931034,131.32825" id="Path" stroke="#333333" stroke-width="3"></path>
                <path d="M63.7137931,338 L63.7137931,123.248619" id="Path" stroke="#333333" stroke-width="3"></path>
            </g>
            <g id="Group" opacity="0.2" transform="translate(459.000000, 0.000000)">
                <path d="M22.8224522,235.446861 C19.7173567,210.899702 29.4735669,185.579012 23.691879,161.51843 C19.2267516,142.941191 5.93694268,127.42065 1.62707006,108.805981 C-4.76321656,81.2146008 9.86178344,52.8871177 28.5296178,31.6524222 C41.3660828,17.0488904 57.4753185,3.79903924 76.6896497,1.12286874 C88.5511146,-0.530243572 100.73551,2.04611637 111.696497,6.8994046 C134.204071,17.0372007 151.500027,36.12177 159.440446,59.5806631 C161.924522,67.1225981 163.433599,75.0138701 166.538694,82.3249932 C171.891879,94.9260758 181.735032,105.094276 187.84586,117.346022 C196.091679,134.142974 196.898977,153.655205 190.069108,171.081529 C182.98949,188.829093 168.165764,203.669675 165.942516,222.658633 C164.346497,236.345156 169.457484,251.354168 162.83742,263.393816 C157.825796,272.495291 147.510669,277.117767 137.735828,280.523802 C115.012739,288.521123 83.2724522,301.396685 60.4748408,289.138701 C40.5090764,278.446495 25.7101911,258.128809 22.8224522,235.446861 Z" id="Path" fill="#CDFFCE" fill-rule="nonzero"></path>
                <path d="M86.5638535,252.90747 C86.5638535,252.90747 120.018153,239.364425 124.234873,231.741394 C128.451592,224.118363 134.357484,179.203613 134.357484,179.203613" id="Path" stroke="#333333" stroke-width="3"></path>
                <path d="M86.2781847,460.538376 L86.2781847,168.187023" id="Path" stroke="#333333" stroke-width="3"></path>
            </g>
            <g id="Group" opacity="0.5" transform="translate(426.000000, 286.000000)" fill="url(#linearGradient-1)" fill-rule="nonzero">
                <path d="M92.5722538,21.50475 C92.5782873,20.0683013 92.0676822,18.6776769 91.1338,17.5872917 C90.6770872,17.1409936 90.2445362,16.670558 89.838,16.178 C89.2720698,15.2702585 88.9654283,14.2245584 88.9514,13.1545417 C88.7778,10.609125 89.2056,7.9085 88.3872,5.43758333 C87.637,3.18395833 85.3616,1.99195833 83.2598,1.24695833 C82.5121751,0.916742696 81.6924194,0.784208411 80.879,0.862041667 C79.5398,1.09795833 78.6036,2.36445833 78.2068,3.66820833 C77.81,4.97195833 77.8224,6.35641667 77.5868,7.69741667 C77.3512,9.03841667 76.725,10.422875 75.5284,11.0623333 C74.3318,11.7017917 72.9182,11.44725 71.5852,11.29825 C69.841373,11.0964217 68.0721986,10.922386 66.3338,11.2485833 C57,13 62.942254,19.090518 60,24 C58.3025103,26.8324527 56.820869,26.0827833 56,29 C54.4980382,34.3376943 57.5940643,37.1881287 60,42 C62.4413266,46.8826532 52.3681462,49.3061951 49,49 C44.9605676,48.6327789 35,46 31,45 C27,44 37.456264,27.7552863 35,28 C31.5942794,28.3393066 33,21 31,16 C29.9078261,13.2695653 28.5479594,11.6919681 26.9204,11.2672083 C25.173077,11.0983986 23.412827,11.1150467 21.669,11.316875 C20.336,11.4720833 18.9038,11.7142083 17.7258,11.0809583 C16.5478,10.4477083 15.9216,9.05704167 15.6674,7.71604167 C15.4132,6.37504167 15.4194,4.99058333 15.0474,3.68683333 C14.6754,2.38308333 13.7144,1.11658333 12.3752,0.880666667 C11.5617806,0.802833411 10.7420249,0.935367696 9.9944,1.26558333 C7.8926,2.01679167 5.611,3.20258333 4.867,5.45620833 C4.0424,7.93954167 4.4764,10.62775 4.3028,13.1731667 C4.28877171,14.2431834 3.98213023,15.2888835 3.4162,16.196625 C3.0096727,16.6891908 2.5771213,17.1596269 2.1204,17.6059167 C1.18651778,18.6963019 0.675912708,20.0869263 0.682,21.523375 C0.664517166,22.5381146 0.912459498,23.5397782 1.4012,24.428875 C2.6846,26.6949167 5.27,27.855875 7.0556,29.755625 C7.71720479,30.3913251 8.15272825,31.2264736 8.2956,32.1334167 C8.401,33.20125 7.8678,34.207 7.6012,35.2375833 C7.21416235,36.7267067 7.35438306,38.3041161 7.998,39.701375 C8.15099992,40.026565 8.33804835,40.3345691 8.556,40.6202083 C8.84293491,41.0189715 9.21590243,41.3478787 9.6472,41.5825 C11.1972,42.3771667 13.0634,41.5825 14.7994,41.6818333 C15.6382188,41.7553545 16.4508174,42.0117519 17.1802,42.4330417 L3.286,42.4330417 C1.68691474,42.4330417 0.3906,43.7310988 0.3906,45.3323333 L0.3906,55.6319583 C0.3906,57.2331929 1.68691474,58.53125 3.286,58.53125 L5.5924,58.53125 L7.1672,98.5067083 L7.7872,114.648375 L8.8536,141.7105 C8.96344422,144.514809 11.2651019,146.733042 14.0678,146.733042 L68.975,146.733042 C71.7776981,146.733042 74.0793558,144.514809 74.1892,141.7105 L75.2184,115.67275 L76.1298,92.372875 L77.4628,58.5250417 L79.7754,58.5250417 C81.3744853,58.5250417 82.6708,57.2269846 82.6708,55.62575 L82.6708,45.3199167 C82.6708,43.7186821 81.3744853,42.420625 79.7754,42.420625 L76.0182,42.420625 C76.7475826,41.9993352 77.5601812,41.7429378 78.399,41.6694167 C80.135,41.54525 82.0012,42.36475 83.5512,41.5700833 C83.9824976,41.335462 84.3554651,41.0065548 84.6424,40.6077917 C84.8603516,40.3221525 85.0474001,40.0141483 85.2004,39.6889583 C85.8440169,38.2916994 85.9842377,36.71429 85.5972,35.2251667 C85.3244,34.188375 84.7974,33.182625 84.9028,32.121 C85.0456717,31.2140569 85.4811952,30.3789085 86.1428,29.7432083 C87.9284,27.8496667 90.5138,26.6887083 91.7972,24.4164583 C92.2859405,23.5273615 92.5338828,22.5256979 92.5164,21.5109583 L92.5722538,21.50475 Z" id="Shape"></path>
            </g>
            <path d="M435.987821,289.398037 C436.706992,289.073255 437.495072,288.943874 438.276688,289.022267 C439.563402,289.251551 440.466576,290.51261 440.84393,291.799146 C441.221284,293.085682 441.215098,294.461384 441.462543,295.779765 C441.709988,297.098145 442.291484,298.473847 443.442103,299.104377 C444.592722,299.734907 445.95367,299.486516 447.234198,299.333661 C448.912648,299.13538 450.60676,299.120436 452.288263,299.289078 C453.6987,299.429195 455.381326,299.925977 455.771052,301.314416 C456.111289,302.454465 455.437001,303.613621 454.985414,304.715456 C454.102485,306.785406 454.122751,309.145534 455.041089,311.199087 C456.018497,313.230795 457.948569,314.689293 458.752765,316.797429 C458.988916,317.324762 459.058163,317.915161 458.950721,318.485211 C458.830717,318.885124 458.632864,319.255686 458.369225,319.574308 C457.750613,320.421384 456.971161,321.166555 456.389665,322.051845 C455.15244,323.905221 454.849319,326.210795 454.707039,328.420834 C454.568782,330.612049 454.581185,332.810586 454.744155,335 C453.166693,334.465005 451.416019,334.942679 449.795254,334.598754 C446.331024,333.86632 444.16588,329.637311 440.633602,329.382552 C438.963348,329.261541 437.163185,330.070402 435.684701,329.280648 C434.97267,328.856736 434.416105,328.203138 434.101053,327.420903 C433.481832,326.039453 433.346308,324.479873 433.717513,323.007193 C433.97733,321.981786 434.490779,320.981855 434.385614,319.930972 C434.236925,319.026477 433.801944,318.197973 433.148389,317.574446 C431.428646,315.695594 428.941823,314.549176 427.704598,312.307292 C426.554945,310.124235 426.830406,307.437597 428.397444,305.549794 C428.833639,305.107829 429.246634,304.642232 429.63467,304.154985 C430.179628,303.256267 430.474888,302.220947 430.488355,301.16156 C430.65538,298.613965 430.24091,295.970834 431.032734,293.518773 C431.775069,291.340579 433.964958,290.13684 435.987821,289.398037 Z" id="Path" fill="#4DB6AC" fill-rule="nonzero"></path>
            <path d="M437,290 C437,290 443.523737,329.309075 452,334" id="Path" stroke="#535461" opacity="0.6"></path>
            <path d="M455,302 C455,302 447.997123,303.060692 441,311" id="Path" stroke="#535461" opacity="0.6"></path>
            <path d="M441,315 C437.151645,312.036724 432.079866,310.619502 427,311.087939" id="Path" stroke="#535461" opacity="0.6"></path>
            <path d="M459,317 C459,317 448.783945,317.725 445,321" id="Path" stroke="#535461" opacity="0.6"></path>
            <path d="M445,325.157908 C441.167803,324.583474 437.285674,325.586507 434,328" id="Path" stroke="#535461" opacity="0.6"></path>
            <path d="M507.012179,289.398037 C506.293008,289.073255 505.504928,288.943874 504.723312,289.022267 C503.436598,289.251551 502.533424,290.51261 502.15607,291.799146 C501.778716,293.085682 501.784902,294.461384 501.537457,295.779765 C501.290012,297.098145 500.708516,298.473847 499.557897,299.104377 C498.407278,299.734907 497.04633,299.486516 495.765802,299.333661 C494.087352,299.13538 492.39324,299.120436 490.711737,299.289078 C489.3013,299.429195 487.618674,299.925977 487.228948,301.314416 C486.888711,302.454465 487.562999,303.613621 488.014586,304.715456 C488.897515,306.785406 488.877249,309.145534 487.958911,311.199087 C486.981503,313.230795 485.051431,314.689293 484.247235,316.797429 C484.011084,317.324762 483.941837,317.915161 484.049279,318.485211 C484.169283,318.885124 484.367136,319.255686 484.630775,319.574308 C485.249387,320.421384 486.028839,321.166555 486.610335,322.051845 C487.84756,323.905221 488.150681,326.210795 488.292961,328.420834 C488.431218,330.612049 488.418815,332.810586 488.255845,335 C489.833307,334.465005 491.583981,334.942679 493.204746,334.598754 C496.668976,333.86632 498.83412,329.637311 502.366398,329.382552 C504.036652,329.261541 505.836815,330.070402 507.315299,329.280648 C508.02733,328.856736 508.583895,328.203138 508.898947,327.420903 C509.518168,326.039453 509.653692,324.479873 509.282487,323.007193 C509.02267,321.981786 508.509221,320.981855 508.614386,319.930972 C508.763075,319.026477 509.198056,318.197973 509.851611,317.574446 C511.571354,315.695594 514.058177,314.549176 515.295402,312.307292 C516.445055,310.124235 516.169594,307.437597 514.602556,305.549794 C514.166361,305.107829 513.753366,304.642232 513.36533,304.154985 C512.820372,303.256267 512.525112,302.220947 512.511645,301.16156 C512.34462,298.613965 512.75909,295.970834 511.967266,293.518773 C511.224931,291.340579 509.035042,290.13684 507.012179,289.398037 Z" id="Path" fill="#4DB6AC" fill-rule="nonzero"></path>
            <path d="M506,290 C506,290 499.476263,329.309075 491,334" id="Path" stroke="#535461" opacity="0.6"></path>
            <path d="M489,302 C489,302 496.002877,303.060692 503,311" id="Path" stroke="#535461" opacity="0.6"></path>
            <path d="M502,315 C505.848355,312.036724 510.920134,310.619502 516,311.087939" id="Path" stroke="#535461" opacity="0.6"></path>
            <path d="M485,317 C485,317 495.216055,317.725 499,321" id="Path" stroke="#535461" opacity="0.6"></path>
            <path d="M497,325.157908 C500.832197,324.583474 504.714326,325.586507 508,328" id="Path" stroke="#535461" opacity="0.6"></path>
            <path d="M502,337 L500.321944,379.23125 L499.429495,401.85 L498.423918,427.125 C498.315964,429.847025 496.066234,431.998761 493.326901,432 L439.654244,432 C436.914912,431.998761 434.665181,429.847025 434.557228,427.125 L433.513942,400.875 L432.885456,385.2 L431,337.01875 L502,337 Z" id="Path" fill="#F0E4E4" fill-rule="nonzero"></path>
            <rect id="Rectangle" fill="#61B78A" fill-rule="nonzero" x="427" y="330" width="80" height="15" rx="4.5"></rect>
            <path d="M500,378.887547 L499.113327,402.01897 C489.278751,399.174681 474.136626,396.304825 463.889935,401.533204 C455.647623,405.751701 443.546412,403.872552 433.624418,401.002696 L433,384.972408 C440.230755,387.66969 448.310718,388.845755 453.89301,384.275717 C463.346692,376.535415 486.743616,375.378524 500,378.887547 Z" id="Path" fill="#6B6B6B" fill-rule="nonzero" opacity="0.15"></path>
            <path d="M284,431 C284,431 294.849474,415.694216 306,417.089971 C306,417.09591 294.096842,430.073457 284,431 Z" id="Path" fill="#4DB6AC" fill-rule="nonzero"></path>
            <path d="M284,431 C284,431 303.751782,416.536931 306,417.011425" id="Path" stroke="#535461" stroke-width="0.5" opacity="0.6"></path>
            <path d="M265.915113,436 C265.915113,436 251.808252,420.938205 255.669145,409 C255.688612,408.993535 267.089603,424.734372 265.915113,436 Z" id="Path" fill="#4DB6AC" fill-rule="nonzero"></path>
            <path d="M268,436 C268,436 256.012521,411.388462 257.065522,409" id="Path" stroke="#535461" stroke-width="0.5" opacity="0.6"></path>
            <g id="Group" opacity="0.5" transform="translate(0.000000, 12.000000)" fill="url(#linearGradient-2)" fill-rule="nonzero">
                <path d="M0.0062350937,171.215439 C-0.0935264055,177.162068 1.65853492,184.520397 6.86483816,193.421601 C6.86483816,193.421601 30.7951278,224.391544 34.2992504,237.877649 L65.0694378,280.690878 C63.7164225,285.013428 50.2673254,328.613711 50.4730835,351.769334 C50.4655016,353.43836 50.5487598,355.106558 50.7224872,356.766501 C50.7224872,356.766501 50.7786031,357.972068 50.7848382,360.01466 C50.7848382,368.597295 49.7560477,389.847748 40.7463373,401.241289 L40.7463373,401.241289 L40.7463373,401.241289 L40.7775128,401.241289 L40.8273935,401.241289 L40.8835094,401.278768 L40.927155,401.278768 L40.9708007,401.278768 L40.7089267,401.622323 L40.9832709,401.784731 C38.794753,408.374745 44.7243271,415.858003 44.7243271,415.858003 L53.6966269,438.345255 L59.6823169,438.345255 L65.4186031,434.847238 L69.9078705,440.843839 C69.9078705,440.843839 97.0804089,440.843839 104.562521,439.344688 C112.044634,437.845538 96.089029,427.357734 90.6021465,424.353187 C87.5594208,422.691629 84.0615332,414.427564 81.5487905,407.394051 C82.1643507,406.702757 82.6940367,405.93929 83.1262692,405.12034 C83.1262692,405.12034 77.1405792,388.635935 83.1262692,363.662592 C85.6701874,353.043612 88.307632,340.881756 90.4961499,330.412691 C94.6611925,343.317875 99.0008177,356.604093 102.074719,365.655212 C106.532811,378.772776 107.561601,387.043088 107.605247,391.80289 C107.605247,395.200963 107.056559,396.625156 107.056559,396.625156 L107.162555,396.756331 C107.100204,397.00619 107.056559,397.124873 107.056559,397.124873 L107.243612,397.343499 C102.879046,404.302054 110.049404,413.359419 110.049404,413.359419 L119.021704,435.846671 L125.007394,435.846671 L130.74368,432.348654 L135.232947,438.345255 C135.232947,438.345255 162.405486,438.345255 169.887598,436.846105 C177.36971,435.346955 161.414106,424.85915 155.927223,421.854603 C151.643714,419.512181 146.449881,404.077181 144.37983,397.424703 L145.458501,397.131119 L145.302624,396.675127 L145.458501,396.631402 L138.974003,377.648414 C132.489506,373.763116 122.020784,303.802776 122.020784,303.802776 C122.020784,303.802776 120.231312,311.579618 120.044259,311.004943 C120.137785,309.755652 120.667768,306.295113 122.020784,298.811856 C122.808971,294.503271 123.197204,290.130821 123.180511,285.75051 C123.180511,268.697677 116.540136,259.346728 116.540136,259.346728 C116.328143,255.954901 110.722794,243.561926 104.344293,230.419377 L113.279182,202.86 C115.523816,203.184816 117.531516,203.109858 119.034174,202.404008 L126.017479,182.921303 C126.017479,182.921303 144.467121,167.436331 150.446576,167.436331 C156.026985,167.436331 172.437751,160.921275 177.880988,152.757153 C178.263435,152.186667 178.597156,151.584872 178.878603,150.958173 C180.007155,148.409618 181.297819,150.683329 182.569779,155.243244 C181.363073,156.845979 180.028541,158.347976 178.579319,159.734448 C180.138125,159.054445 181.66145,158.295563 183.143407,157.460737 C186.136252,169.803739 188.848518,192.921884 188.848518,192.921884 L188.848518,211.904873 L197.30954,210.730538 L228.223135,275.843626 C228.223135,275.843626 231.633731,291.565963 246.080443,297.849901 L242.962896,304.09636 L250.937581,306.095227 L252.1846,304.033895 L252.446474,304.09636 L254.797104,300.173584 C255.420613,300.248541 256.044123,300.304759 256.667632,300.348484 C265.802044,300.935652 265.465349,295.519972 261.655707,288.692592 L263.18954,286.125297 C273.789199,286.687479 269.979557,302.222422 265.097479,314.765312 C262.983865,320.156711 260.586219,325.431973 257.914651,330.568853 C267.890801,348.058938 289.327053,346.053824 289.327053,346.053824 L290.511721,344.073697 L290.823475,344.073697 L303.568007,322.792011 C314.791175,311.735779 333.920443,315.146346 347.974344,319.93738 C354.034359,321.997515 359.920323,324.539589 365.576014,327.53932 L365.576014,327.53932 L364.578399,324.54102 L363.954889,324.228697 L363.611959,323.541586 L355.830562,320.374632 L337.829847,311.835722 L317.254037,302.066261 C312.852061,302.971997 307.951278,302.159958 302.913322,300.28602 C283.441124,293.058867 262.123339,269.928229 260.957376,268.653952 L260.907496,268.591487 L255.364497,279.54153 C250.93517,274.041503 246.201542,268.794574 241.185894,263.825439 L219.475298,207.607309 L220.722317,207.426161 L220.366917,206.4767 L220.722317,206.426728 L209.25598,175.956501 C209.25598,175.956501 204.267905,142.987691 203.769097,130.001303 C203.27029,117.014915 203.27029,99.0313598 195.794412,89.043272 L195.582419,89.3181161 L195.463952,89.0245326 L210.266065,75.963187 C210.565349,75.963187 210.889574,75.9257082 211.157683,75.8944759 L210.852164,75.3697734 C225.538128,73.7840518 236.670749,61.3652924 236.671687,46.5673513 C236.671687,46.2113031 236.671687,45.855255 236.671687,45.4992068 C242.065043,48.278881 247.402283,48.3913173 247.595571,44.2061898 C248.387428,27.1158782 237.56954,10.0880312 221.782283,3.5729745 C208.489063,-1.91766289 193.188143,-0.17490085 179.626814,4.61613314 C176.08912,5.75976244 172.719481,7.37097857 169.607019,9.40716714 C166.551823,11.5247167 163.995434,14.2669122 161.532572,17.0653258 C157.005894,22.2436402 152.70368,27.9341643 151.095026,34.6241218 C149.486371,41.3140793 151.194787,49.2283428 156.806371,53.2010907 C158.757956,54.5878045 161.239523,55.6059773 162.156082,57.8234703 C163.178637,60.2845751 161.881738,63.4452833 163.490392,65.5940652 C164.737411,67.2743626 167.169097,67.3992918 169.195503,67.973966 C170.150655,68.2460138 171.063463,68.649643 171.907768,69.1732861 C157.267768,72.3652266 123.10569,80.9478612 114.544906,93.0222663 C103.577376,108.507238 72.1462692,118.495326 72.1462692,118.495326 L20.2889949,137.978031 L2.83073254,148.965552 L3.17989779,149.74636 L2.83073254,149.964986 C2.83073254,149.964986 3.89069847,152.33864 5.36841567,155.449377 C1.81183682,159.923698 -0.0835054068,165.496446 0.0062350937,171.215439 Z M92.5724361,206.86398 C90.7455537,203.284759 89.1493697,200.192762 87.9459966,197.875326 L91.6122317,193.921317 C91.6122317,193.921317 92.1983305,194.277365 93.2146508,194.845793 L92.5724361,206.86398 Z" id="Shape"></path>
            </g>
            <g id="Group" opacity="0.5" transform="translate(502.000000, 364.000000)" fill="url(#linearGradient-3)" fill-rule="nonzero">
                <path d="M133.467757,0.977241379 C92.8169159,-3.9716092 53.0427103,40.3174713 40.6633645,55.5837356 L37.7141121,55.5837356 L30.1437383,55.5461494 L3.27485981,55.5461494 C1.62874157,55.5461494 0.294257979,56.8811643 0.294257979,58.5279885 L0.294257979,64.9928161 C0.292582055,66.4115987 1.29035588,67.6351163 2.68,67.9182759 L2.71757009,68.4758046 L4.40196262,95.4501724 L4.94046729,104.088736 C5.10581056,106.71031 7.2803199,108.75133 9.90598131,108.74945 L54.2386916,108.74945 C56.864353,108.75133 59.0388623,106.71031 59.2042056,104.088736 L59.5986916,97.8243678 L61.4333645,68.5071264 L61.4709346,67.9495977 C62.8605787,67.6664381 63.8583525,66.4429205 63.8566355,65.0241379 L63.8566355,58.5655747 C63.8566355,56.9187505 62.522193,55.5837356 60.8760748,55.5837356 L57.3507477,55.5837356 C95.8726168,40.943908 133.467757,0.977241379 133.467757,0.977241379 Z" id="Path"></path>
            </g>
            <path d="M298,433 L296.077639,464.617674 L295.748977,469.995348 C295.611409,472.247196 293.789085,474.001053 291.587995,474 L254.418207,474 C252.217116,474.001053 250.394792,472.247196 250.257224,469.995348 L249.804539,462.577209 L248,433 L298,433 Z" id="Path" fill="#F0E4E4" fill-rule="nonzero"></path>
            <polygon id="Path" fill="#000000" fill-rule="nonzero" opacity="0.1" points="297.634131 439 298 434 248 434 248.365869 439"></polygon>
            <rect id="Rectangle" fill="#61B78A" fill-rule="nonzero" x="246" y="428" width="54" height="11" rx="4.5"></rect>
            <path d="M297,465.051522 L296.666131,470.180527 C296.526383,472.328247 294.675185,474.001004 292.439217,474 L254.686771,474 C252.450804,474.001004 250.599606,472.328247 250.459858,470.180527 L250,463.10541 C254.063128,459.983143 260.406648,457.430765 269.326632,460.152897 C281.786892,463.954181 289.440692,465.233401 297,465.051522 Z" id="Path" fill="#61B78A" fill-rule="nonzero" opacity="0.15"></path>
            <path d="M541,424 C541,424 585.876712,361.700413 632,367.364012 C632,367.364012 582.760274,420.224267 541,424 Z" id="Path" fill="#4DB6AC" fill-rule="nonzero"></path>
            <path d="M541,424 C541,424 622.618557,365.136362 632,367.045453" id="Path" stroke="#535461" opacity="0.6"></path>
            <path d="M565,424 L562.808423,459.490827 L562.434715,465.52529 C562.267893,468.045087 560.192863,470.002249 557.690521,470 L515.315813,470 C512.813471,470.002249 510.738441,468.045087 510.571619,465.52529 L510.058562,457.215118 L508,424.012785 L565,424 Z" id="Path" fill="#F0E4E4" fill-rule="nonzero"></path>
            <polygon id="Path" fill="#000000" fill-rule="nonzero" opacity="0.1" points="508.418 431 564.588333 431 565 426 508 426"></polygon>
            <rect id="Rectangle" fill="#61B78A" fill-rule="nonzero" x="506" y="418" width="60" height="13" rx="4.5"></rect>
            <path d="M562,460.26319 L561.638689,466.428364 C561.477401,469.002743 559.471205,471.002298 557.051873,471 L516.082853,471 C513.663521,471.002298 511.657325,469.002743 511.496037,466.428364 L511,457.938188 C515.409222,454.182917 522.292507,451.113392 531.974424,454.385375 C545.489914,458.917824 553.793948,460.485241 562,460.26319 Z" id="Path" fill="#258D79" fill-rule="nonzero" opacity="0.15"></path>
            <g id="Group" opacity="0.5" transform="translate(311.000000, 311.000000)" fill="url(#linearGradient-4)" fill-rule="nonzero">
                <path d="M92.5153247,79.1173704 C67.7071103,78.9751003 51.8686687,78.9359768 45,79 C36.2884707,79.0812006 31.670294,78.0313011 30.7885714,79.0739912 L30.0155844,79.0739912 C31.012987,71.0922279 31.972987,57.7686322 29.467013,46.056262 C29.467013,45.9818977 30.2961039,38.4401229 36.1309091,33.2842012 C38.550732,31.1762752 41.3457995,29.5368638 44.3719481,28.4505246 L44.7397403,28.3017961 C45.9216894,30.8205596 48.9009228,31.9525228 51.471485,30.8595304 C54.0420471,29.766538 55.2763811,26.8429834 54.2605317,24.253595 C53.2446823,21.6642065 50.3452068,20.3433346 47.7090043,21.2690108 C45.0728019,22.194687 43.6511151,25.0328919 44.4966234,27.682094 L44.1225974,27.8308225 C41.0245465,28.9455525 38.1638323,30.6270612 35.6883117,32.7884395 C31.3246753,36.6553807 29.6664935,41.8298935 29.0867532,44.4016573 C28.2955962,41.1074381 27.0935613,37.9243759 25.5085714,34.9264118 C23.5986633,31.5220577 22.3688254,27.7827462 21.8867532,23.914305 C22.9318365,24.0587006 23.9859181,24.1291107 25.041039,24.1250038 C29.2606631,24.1181991 33.4206023,23.1336768 37.1906494,21.2495859 C38.8485968,23.5424924 42.0380414,24.1131337 44.3961352,22.5387594 C46.7542291,20.9643851 47.4294588,17.8135057 45.9215915,15.4203986 C44.4137242,13.0272915 41.2672544,12.2561135 38.8131928,13.6781792 C36.3591312,15.1002449 35.4836454,18.2020429 36.8353247,20.685657 C32.2029589,23.0154065 26.9724216,23.9050572 21.8244156,23.2388297 C21.4218977,18.7122861 22.4738898,14.1754624 24.8290909,10.2808583 C27.2119659,11.9402425 30.4897667,11.418482 32.2323023,9.10241459 C33.974838,6.78634721 33.5521944,3.51321473 31.2777234,1.70974685 C29.0032523,-0.093721017 25.6991587,0.224416431 23.8151271,2.42828925 C21.9310956,4.63216207 22.1481899,7.92508602 24.3054545,9.86565784 C21.4254545,14.569197 18.6202597,23.1086923 24.6545455,34.7157131 C21.9241558,34.4802263 10.3168831,33.2036399 6.85714286,28.2336289 C6.80727273,28.1592646 6.76363636,28.0787033 6.71376623,28.0043391 C9.47090036,27.384978 11.2604285,24.7315376 10.7896407,21.9607963 C10.3188528,19.190055 7.75190745,17.2681398 4.94310125,17.5833938 C2.13429506,17.8986478 0.063027776,20.3411454 0.225530695,23.1464879 C0.388033613,25.9518303 2.72764376,28.1418257 5.55428571,28.1344765 C5.7038961,28.1344765 5.85350649,28.1344765 5.99688312,28.1344765 C6.09038961,28.3017961 6.19012987,28.4691157 6.30233766,28.6302382 C10.1922078,34.2075573 23.227013,35.3044301 25.0036364,35.4469616 C28.2950649,41.6439829 29.7288312,49.4336386 30.1901299,57.0497777 C28.3636364,57.3472347 18.8820779,58.7415645 13.9137662,56.5044398 C16.0078389,54.5149512 16.1388049,51.2334728 14.2098687,49.0853104 C12.2809325,46.9371481 8.98635725,46.695469 6.76112863,48.5388957 C4.53590002,50.3823223 4.18092294,53.6473681 5.95855718,55.9208722 C7.73619142,58.1943763 11.0066304,58.6580586 13.3527273,56.9692164 C15.6218182,58.0908773 18.8072727,58.4255164 21.8244156,58.4255164 C24.6397536,58.4038108 27.4491803,58.1655469 30.2275325,57.712859 C30.5415079,64.8812367 30.2349243,72.0631783 29.3111688,79.1793406 L28.1205195,79.1793406 C26.0229662,74.2533393 23.4156913,69.5575859 20.3407792,65.1678755 C18.8633766,69.7164892 19.9418182,74.7050913 21.8805195,79.1793406 L13.2342857,79.1793406 C11.5782922,79.1793406 10.2358442,80.5138756 10.2358442,82.1601078 L10.2358442,92.7570142 C10.2797591,94.3717018 11.6094305,95.6578102 13.2342857,95.6572201 L13.44,95.6572201 L13.4836364,96.3203014 L13.5272727,96.3203014 L15.7901299,132.263025 L16.507013,143.770893 C16.7369736,147.257802 19.6495615,149.967915 23.1646753,149.967915 L82.6036364,149.967915 C86.1187502,149.967915 89.0313381,147.257802 89.2612987,143.770893 L89.7849351,135.429703 L92.241039,96.3264984 L92.2846753,96.3264984 L92.3283117,95.6634172 L92.534026,95.6634172 C94.1900195,95.6634172 95.5324675,94.3288822 95.5324675,92.6826499 L95.5324675,82.0857436 C95.5291719,81.2941135 95.2092401,80.5363017 94.6432332,79.9794438 C94.0772262,79.4225859 93.31164,79.1124262 92.5153247,79.1173704 Z" id="Shape"></path>
            </g>
            <path d="M340.638132,395 L339.904735,394.875092 C339.978075,394.569069 347.084691,364.047909 336.237751,346.866875 C325.236797,329.379818 339.112667,319.099926 339.259346,319 L339.72872,319.474649 C339.589375,319.574575 326.160878,329.517216 336.88314,346.567097 C347.87676,363.941737 340.711472,394.687731 340.638132,395 Z" id="Path" fill="#535461" fill-rule="nonzero"></path>
            <path d="M337.416346,335.998482 C336.271217,336.012106 335.127168,335.934015 334,335.765287 L334.133974,335.258341 C340.739914,336.064608 347.448436,334.518964 352.616346,331 L353,331.395417 C348.589366,334.366268 343.089945,335.990674 337.416346,335.998482 L337.416346,335.998482 Z" id="Path" fill="#535461" fill-rule="nonzero"></path>
            <path d="M337.911695,348 C337.34402,347.970509 323.902745,347.174263 320.03625,341.936729 C318.965595,340.492624 318.707153,338.65375 319.342425,337 L319.973175,337.176944 C319.406374,338.660126 319.641346,340.308037 320.603925,341.600536 C324.300118,346.602145 337.861235,347.40429 338,347.410188 L337.911695,348 Z" id="Path" fill="#535461" fill-rule="nonzero"></path>
            <path d="M340.611916,358 L340,357.940569 C340,357.869252 340.789372,350.874257 346.321095,346.096028 C348.593655,344.160246 351.219072,342.654515 354.061836,341.656553 C355.940419,340.919612 357.427375,340.331248 358.522705,339 L359,339.374414 C357.776167,340.824523 356.172947,341.466375 354.288245,342.209259 C351.51123,343.18313 348.946093,344.652525 346.72496,346.541758 C341.370692,351.165468 340.618035,357.958398 340.611916,358 Z" id="Path" fill="#535461" fill-rule="nonzero"></path>
            <path d="M333.803689,369 C330.360122,369 326.686984,368.585605 324.633253,367.080698 C323.570448,366.33496 322.966506,365.194783 323.001436,364 L323.621899,364 C323.586982,365.032625 324.109133,366.019074 325.030349,366.660851 C329.317745,369.796074 341.782838,367.838604 341.888317,367.822246 L342,368.367503 C339.291947,368.773398 336.550795,368.984929 333.803689,369 Z" id="Path" fill="#535461" fill-rule="nonzero"></path>
            <path d="M342,390 C342,390 352.849474,374.694216 364,376.089971 C364,376.09591 352.096842,389.073457 342,390 Z" id="Path" fill="#4DB6AC" fill-rule="nonzero"></path>
            <path d="M342.915113,403 C342.915113,403 328.808252,387.938205 332.669145,376 C332.688612,375.993535 344.089603,391.734372 342.915113,403 Z" id="Path" fill="#4DB6AC" fill-rule="nonzero"></path>
            <path d="M399,395.01875 L396.112981,441.268741 L395.619313,449.137489 C395.414385,452.43708 392.675749,455.006348 389.370355,455 L333.629645,455 C330.324251,455.006348 327.585615,452.43708 327.380687,449.137489 L326.705799,438.281242 L324,395 L399,395.01875 Z" id="Path" fill="#F0E4E4" fill-rule="nonzero"></path>
            <polygon id="Path" fill="#000000" fill-rule="nonzero" opacity="0.1" points="324.55 405 398.45625 405 399 396 324 396"></polygon>
            <rect id="Rectangle" fill="#61B78A" fill-rule="nonzero" x="322" y="389" width="80" height="15" rx="4.5"></rect>
            <path d="M399,441.876341 L398.502116,449.396902 C398.295437,452.550488 395.53341,455.006067 392.199784,455 L335.982984,455 C332.649358,455.006067 329.887331,452.550488 329.680652,449.396902 L329,439.021036 C335.050239,434.439408 344.497434,430.700034 357.78275,434.690292 C376.343117,440.263512 387.744035,442.145145 399,441.876341 Z" id="Path" fill="#363636" fill-rule="nonzero" opacity="0.15"></path>
            <circle id="Oval" fill="#4DB6AC" fill-rule="nonzero" cx="340.5" cy="319.5" r="5.5"></circle>
            <circle id="Oval" fill="#4DB6AC" fill-rule="nonzero" cx="351.5" cy="331.5" r="5.5"></circle>
            <circle id="Oval" fill="#4DB6AC" fill-rule="nonzero" cx="360.5" cy="338.5" r="5.5"></circle>
            <circle id="Oval" fill="#4DB6AC" fill-rule="nonzero" cx="318.5" cy="336.5" r="5.5"></circle>
            <circle id="Oval" fill="#4DB6AC" fill-rule="nonzero" cx="323.5" cy="363.5" r="5.5"></circle>
            <path d="M144.047385,401.023003 C144.047385,401.023003 150.948805,424.968489 156.32564,427.871919 C161.702474,430.775348 177.437713,441.065351 170.072015,442.532676 C162.706317,444 135.947626,444 135.947626,444 L131.555813,438.136946 L125.909196,441.558622 L120.017892,441.558622 L111.146429,419.617438 C111.146429,419.617438 101.816963,407.89133 111.146429,401.047978 C120.475896,394.204627 144.047385,401.023003 144.047385,401.023003 Z" id="Path" fill="#333333" fill-rule="nonzero"></path>
            <path d="M85.5528398,205.963077 C85.5528398,205.963077 115.773343,262.432754 116.2671,270.220817 C116.2671,270.220817 126.173905,283.849927 121.717426,308.165852 C117.260946,332.481777 121.717426,313.5217 121.717426,313.5217 C121.717426,313.5217 132.130649,381.710795 138.562159,385.604826 L145,404.104586 C145,404.104586 113.791982,412.869267 106.854053,404.104586 C106.854053,404.104586 109.82926,396.316523 101.897485,373.437533 C93.9657113,350.558543 77.6210656,299.89259 77.6210656,299.89259 L37,185 L85.5528398,205.963077 Z" id="Path" fill="#000000" fill-rule="nonzero" opacity="0.1"></path>
            <path d="M85.5528398,205.935478 C85.5528398,205.935478 115.773343,262.414608 116.2671,270.203975 C116.2671,270.203975 126.173905,283.835366 121.717426,308.155362 C117.260946,332.475357 121.717426,313.512107 121.717426,313.512107 C121.717426,313.512107 132.130649,381.712616 138.562159,385.601078 L145,404.103934 C145,404.103934 113.791982,412.870082 106.854053,404.103934 C106.854053,404.103934 109.82926,396.314567 101.897485,373.431748 C93.9657113,350.548928 77.6210656,299.911823 77.6210656,299.911823 L37,185 L85.5528398,205.935478 Z" id="Path" fill="#3AD29F" fill-rule="nonzero"></path>
            <path d="M45.1273417,187.27086 L83.9433541,299.911746 C83.9433541,299.911746 99.8806869,350.548816 107.605635,373.431621 C115.330583,396.314425 112.436812,404.103787 112.436812,404.103787 C114.3989,406.648395 118.366265,407.718498 123,407.948695 C116.59545,408.228664 110.659828,407.419865 108.093072,404.103787 C108.093072,404.103787 110.993012,396.314425 103.261894,373.431621 C95.5307761,350.548816 79.5996134,299.911746 79.5996134,299.911746 L40,185 L45.1273417,187.27086 Z" id="Path" fill="#000000" fill-rule="nonzero" opacity="0.1"></path>
            <path d="M79.0365882,401.109507 C79.0365882,401.109507 85.9406746,425.553312 91.3195856,428.517163 C96.6984966,431.481014 112.439814,441.985158 105.071271,443.483018 C97.7027274,444.980878 70.9274248,445 70.9274248,445 L66.5339153,439.014933 L60.8851173,442.507815 L54.991538,442.507815 L46.1480309,420.059033 C46.1480309,420.059033 36.8149613,408.088898 46.1480309,401.103133 C55.4811005,394.117368 79.0365882,401.109507 79.0365882,401.109507 Z" id="Path" fill="#333333" fill-rule="nonzero"></path>
            <path d="M85.5528398,205.963077 C85.5528398,205.963077 115.773343,262.432754 116.2671,270.220817 C116.2671,270.220817 126.173905,283.849927 121.717426,308.165852 C117.260946,332.481777 121.717426,313.5217 121.717426,313.5217 C121.717426,313.5217 132.130649,381.710795 138.562159,385.604826 L145,404.104586 C145,404.104586 113.791982,412.869267 106.854053,404.104586 C106.854053,404.104586 109.82926,396.316523 101.897485,373.437533 C93.9657113,350.558543 77.6210656,299.89259 77.6210656,299.89259 L37,185 L85.5528398,205.963077 Z" id="Path" fill="#000000" fill-rule="nonzero" opacity="0.1"></path>
            <path d="M14.5554739,162.243126 C14.5554739,162.243126 -6.34017393,174.436433 10.6682003,203.689156 C10.6682003,203.689156 33.9980514,233.920084 37.3699196,247.085367 L67.4993945,289.017384 C67.4993945,289.017384 50.9753771,341.192528 53.4033706,363.161665 C53.4033706,363.161665 54.8626506,392.906606 43.6851867,407.050094 C43.6851867,407.050094 75.7582984,426.551909 84.0482508,410.950457 C84.0482508,410.950457 78.2173405,394.856787 84.0482508,370.451481 C89.8791612,346.046174 96.200638,313.397768 96.200638,313.397768 C96.200638,313.397768 120.499203,290.481578 96.200638,255.372081 L62.1838895,173.944215 L58.7809727,154.928388 L42.2569552,152 L14.5554739,162.243126 Z" id="Path" fill="#000000" fill-rule="nonzero" opacity="0.1"></path>
            <path d="M13.5554739,162.219164 C13.5554739,162.219164 -7.34017393,174.413619 9.66820031,203.669092 C9.66820031,203.669092 32.9980514,233.902864 36.3699196,247.069385 L66.4993945,289.005347 C66.4993945,289.005347 49.9753771,341.185397 52.4033706,363.156601 C52.4033706,363.156601 53.8626506,392.904339 42.6851867,407.049159 C42.6851867,407.049159 74.7582984,426.552808 83.0482508,410.949888 C83.0482508,410.949888 77.2173405,394.854704 83.0482508,370.447102 C88.8791612,346.039501 95.200638,313.388024 95.200638,313.388024 C95.200638,313.388024 119.499203,290.469678 95.200638,255.356878 L61.1838895,173.915123 L57.7933921,154.928663 L41.2693746,152 L13.5554739,162.219164 Z" id="Path" fill="#000000" fill-rule="nonzero" opacity="0.1"></path>
            <path d="M13.5497496,162.243608 C13.5497496,162.243608 -7.33456644,174.437488 9.66458414,203.691586 C9.66458414,203.691586 26.7940677,225.904762 33.8258449,240.541157 C36.882137,246.824734 40.4810998,252.827293 44.5814228,258.479932 L66.5208158,289.011366 C66.5208158,289.011366 50.0057593,341.188963 52.4324361,363.159133 C52.4324361,363.159133 53.8909248,392.905473 42.7195224,407.049627 C42.7195224,407.049627 74.7752408,426.552359 83.0606976,410.950173 C83.0606976,410.950173 77.2329494,394.855746 83.0606976,370.449292 C88.8884458,346.042838 95.2064945,313.392896 95.2064945,313.392896 C95.2064945,313.392896 119.491882,290.475628 95.2064945,255.36448 L61.164749,173.945247 L57.7636776,154.928525 L41.2486211,152 L13.5497496,162.243608 Z" id="Path" fill="#3AD29F" fill-rule="nonzero"></path>
            <path d="M12.5137697,162.237976 L40.1375487,152 L44.0944182,152.691671 L18.3530935,162.231745 C18.3530935,162.231745 -2.48394217,174.42634 14.4767238,203.682152 C14.4767238,203.682152 31.5674276,225.896629 38.5832854,240.533882 C41.622769,246.816693 45.2032028,252.819567 49.2835522,258.473708 L71.1732762,289.00693 C71.1732762,289.00693 54.6956084,341.187584 57.1167915,363.159042 C57.1167915,363.159042 58.5719782,392.907124 47.425867,407.052107 C47.425867,407.052107 61.2036989,415.451858 73,416.816506 C60.5163554,418.579956 41.60512,407.052107 41.60512,407.052107 C52.7512313,392.907124 51.2960445,363.159042 51.2960445,363.159042 C48.8748615,341.212509 65.3525292,289.00693 65.3525292,289.00693 L43.4628052,258.473708 C39.3824559,252.819567 35.802022,246.816693 32.7625385,240.533882 C25.7404884,225.896629 8.65597678,203.682152 8.65597678,203.682152 C-8.31088143,174.42634 12.5137697,162.237976 12.5137697,162.237976 Z" id="Path" fill="#000000" fill-rule="nonzero" opacity="0.1"></path>
            <path d="M115,207.782588 L103.534717,245.450238 C103.534717,245.450238 115.444799,290.943959 106.285448,293.881861 C97.1260974,296.819763 93,243.987538 93,243.987538 L95.2883746,198 L115,207.782588 Z" id="Path" fill="#BE7C5E" fill-rule="nonzero"></path>
            <path d="M216.660696,214 L239.32058,271.614676 C239.32058,271.614676 277.716496,308.41185 254.590825,306.958028 C231.465154,305.504205 226.511451,283.232882 226.511451,283.232882 L193,214 L216.660696,214 Z" id="Path" fill="#BE7C5E" fill-rule="nonzero"></path>
            <path d="M208,88.3370579 L179.320556,113 L163,84.9197172 C163,84.9197172 189.701769,82.503478 191.186605,72.3441504 C192.671441,62.1848227 208,88.3370579 208,88.3370579 Z" id="Path" fill="#BE7C5E" fill-rule="nonzero"></path>
            <polygon id="Path" fill="#BE7C5E" fill-rule="nonzero" points="194 103.292397 190.632056 95 160.326702 101.8283 156 154 179.090086 151.071806 188.708394 128.643083 192.555717 107.678458"></polygon>
            <path d="M183.953942,95.9454383 L184.196865,81 C184.196865,81 126.891917,91.0178891 116.19707,106.232558 C105.502222,121.447227 74.7631009,131.22093 74.7631009,131.22093 L24.0669084,150.330054 L7,161.143113 C7,161.143113 15.2843023,179.763864 17.7259913,180.740608 C20.1676804,181.717352 41.6134343,157.217352 41.6134343,157.217352 L51.3615043,158.200358 L25.997836,195.448122 L91.3192479,242 L87.4324775,211.151163 L93.7671658,204.263864 C93.7671658,204.263864 113.263306,216.022361 120.551,212.591234 L127.402679,193.482111 C127.402679,193.482111 145.466195,178.292487 151.290122,178.292487 C156.746549,178.292487 172.791935,171.899821 178.073956,163.891771 C178.448804,163.331946 178.77594,162.741296 179.051877,162.126118 C182.951105,153.304114 188.799947,203.28712 188.799947,203.28712 L188.799947,221.907871 L220,217.525045 L208.788162,187.634168 C208.788162,187.634168 203.911013,155.29517 203.425167,142.553667 C202.93932,129.812165 202.93932,112.174419 195.626711,102.375671 L186.389402,114.597496 L172.250029,148.407871 L175.177565,120.476744 L183.953942,95.9454383 Z" id="Path" fill="#000000" fill-rule="nonzero" opacity="0.1"></path>
            <path d="M183.953942,95.4137958 L178.833869,81 C178.833869,81 126.904375,90.5322071 116.19707,105.676368 C105.489765,120.82053 74.7631009,130.58995 74.7631009,130.58995 L24.0669084,149.641879 L7,160.391362 C7,160.391362 15.2843023,178.956381 17.7259913,179.930202 C20.1676804,180.904022 41.6134343,156.477352 41.6134343,156.477352 L51.3615043,157.457415 L25.997836,194.587453 L91.3317055,241 L87.4324775,210.224767 L93.7671658,203.358082 C93.7671658,203.358082 113.263306,215.081386 120.551,211.660528 L127.402679,192.608599 C127.402679,192.608599 145.466195,177.464438 151.290122,177.464438 C156.746549,177.464438 172.791935,171.090906 178.073956,163.106824 C178.448804,162.548675 178.77594,161.959792 179.051877,161.346455 C182.951105,152.550856 188.799947,202.384261 188.799947,202.384261 L188.799947,220.94928 L220,216.579572 L208.788162,186.778159 C208.788162,186.778159 203.911013,154.535953 203.425167,141.832586 C202.93932,129.129219 202.93932,111.544263 195.626711,101.774843 L186.389402,113.978815 L172.250029,147.687995 L175.177565,119.840467 L183.953942,95.4137958 Z" id="Path" fill="#424744" fill-rule="nonzero"></path>
            <path d="M121,124 C121,124 94.0105358,155.319016 93,170" id="Path" fill="#000000" fill-rule="nonzero" opacity="0.1"></path>
            <path d="M157,142 C157,142 137.289593,163.859803 135,176" id="Path" fill="#000000" fill-rule="nonzero" opacity="0.1"></path>
            <path d="M92.6733333,181 C92.6733333,181 91.8933333,192.829135 92.6733333,199" id="Path" fill="#000000" fill-rule="nonzero" opacity="0.1"></path>
            <path d="M85,206 C85,206 43.8957455,179.59047 39,181.059055" id="Path" fill="#000000" fill-rule="nonzero" opacity="0.1"></path>
            <path d="M192.419363,73.4337098 C193.743247,63.34515 206.882054,87.7488183 208,89.8524722 C207.117411,89.9465381 206.223054,89.9957088 205.31693,90 C198.016038,90.0081892 191.03237,86.748087 186,80.9824924 C189.418561,79.1033137 192.013373,76.6404994 192.419363,73.4337098 Z" id="Path" fill="#000000" fill-rule="nonzero" opacity="0.1"></path>
            <circle id="Oval" fill="#BE7C5E" fill-rule="nonzero" cx="205.5" cy="59.5" r="28.5"></circle>
            <path d="M204.378919,56.5967025 C202.68675,59.6161261 201.051197,62.7595508 200.604565,66.1819777 C200.12648,69.9020068 201.114103,73.6840365 201.164427,77.4536661 C201.170932,85.6642708 196.815198,93.2788333 189.684101,97.5232235 C189.087434,97.8000622 188.56415,98.2096921 188.155487,98.7198329 C187.895086,99.1679114 187.752373,99.6730042 187.740308,100.189244 C187.595625,102.080259 188.098872,103.971274 188.08,105.868489 C188.061128,107.765704 187.299967,109.87992 185.51973,110.611526 C194.526174,121.819974 198.276604,136.272189 195.836298,150.366238 C195.043683,154.786873 193.584266,159.207507 190.753501,162.729135 C187.696274,166.542165 183.267699,169.040785 178.757346,171 C181.732795,168.073577 184.909543,164.737951 185.047936,160.596318 C185.186329,157.080891 183.104143,153.912666 181.487462,150.769241 C177.958877,144.03857 176.575335,136.414353 177.518099,128.89547 C178.512013,121.672413 181.858607,114.548557 180.51242,107.387501 C179.883361,103.989874 178.197483,100.821649 177.757142,97.3930225 C177.442612,94.9440033 177.757142,92.4329836 177.247604,90.0211647 C176.348445,86.1140218 173.377025,82.9909167 169.478725,81.8557006 C167.478318,81.2976962 165.075312,81.1798953 163.817194,79.5430825 C162.231966,77.4784663 163.508955,74.384642 162.502461,71.9914232 C161.596616,69.8400064 159.149577,68.8479986 157.218365,67.502588 C151.682646,63.6461578 149.990478,55.9580974 151.556834,49.4604465 C153.123191,42.9627955 157.394502,37.4323521 161.867111,32.4041127 C164.282698,29.6822913 166.824096,27.0224704 169.837289,24.9640543 C172.946556,22.9783896 176.3129,21.4143303 179.845618,20.3140178 C193.238284,15.6701814 208.348281,13.971368 221.470452,19.3034099 C237.058534,25.6336595 247.739956,42.1753893 246.959923,58.7729195 C246.525872,67.4095873 223.250689,57.2663077 225.100122,43.3595986 C225.867574,37.5873533 218.539037,38.8707634 213.98465,43.2603978 C210.04045,47.0858278 207.05871,51.8412651 204.378919,56.5967025 Z" id="Path" fill="#000000" fill-rule="nonzero" opacity="0.1"></path>
            <path d="M202.378919,54.5967025 C200.68675,57.6161261 199.051197,60.7595508 198.604565,64.1819777 C198.12648,67.9020068 199.114103,71.6840365 199.164427,75.4536661 C199.170932,83.6642708 194.815198,91.2788333 187.684101,95.5232235 C187.087434,95.8000622 186.56415,96.2096921 186.155487,96.7198329 C185.895086,97.1679114 185.752373,97.6730042 185.740308,98.1892445 C185.595625,100.080259 186.098872,101.971274 186.08,103.868489 C186.061128,105.765704 185.299967,107.87992 183.51973,108.611526 C192.526174,119.819974 196.276604,134.272189 193.836298,148.366238 C193.043683,152.786873 191.584266,157.207507 188.753501,160.729135 C185.696274,164.542165 181.267699,167.040785 176.757346,169 C179.732795,166.073577 182.909543,162.737951 183.047936,158.596318 C183.186329,155.080891 181.104143,151.912666 179.487462,148.769241 C175.958877,142.03857 174.575335,134.414353 175.518099,126.89547 C176.512013,119.672413 179.858607,112.548557 178.51242,105.387501 C177.883361,101.989874 176.197483,98.8216494 175.757142,95.3930225 C175.442612,92.9440033 175.757142,90.4329836 175.247604,88.0211647 C174.348445,84.1140218 171.377025,80.9909167 167.478725,79.8557006 C165.478318,79.2976962 163.075312,79.1798953 161.817194,77.5430825 C160.231966,75.4784663 161.508955,72.384642 160.502461,69.9914232 C159.596616,67.8400064 157.149577,66.8479986 155.218365,65.502588 C149.682646,61.6461578 147.990478,53.9580974 149.556834,47.4604465 C151.123191,40.9627955 155.394502,35.4323521 159.867111,30.4041127 C162.282698,27.6822913 164.824096,25.0224704 167.837289,22.9640543 C170.946556,20.9783896 174.3129,19.4143303 177.845618,18.3140178 C191.238284,13.6701814 206.348281,11.971368 219.470452,17.3034099 C235.058534,23.6336595 245.739956,40.1753893 244.959923,56.7729195 C244.525872,65.4095873 221.250689,55.2663077 223.100122,41.3595986 C223.867574,35.5873533 216.539037,36.8707634 211.98465,41.2603978 C208.04045,45.0858278 205.05871,49.8412651 202.378919,54.5967025 Z" id="Path" fill="#AE9B90" fill-rule="nonzero"></path>
            <rect id="Rectangle" fill="#505050" fill-rule="nonzero" transform="translate(182.500000, 109.000000) rotate(180.000000) translate(-182.500000, -109.000000) " x="177" y="107" width="11" height="4" rx="2"></rect>
            <path d="M242,308.350318 L249.771489,310.282325 L260.25555,292.906606 L261.428722,290.962254 C272.769385,291.264708 267.86565,308.30711 262.70121,320.83738 C259.678275,328.170366 256.568438,333.960215 256.568438,333.960215 C265.6,349.681692 284.290058,349.113817 286.872278,348.953331 L287.176433,348.953331 L299.590952,328.37406 L300.292372,327.213621 C311.297843,315.405539 330.428617,319.738667 344.07838,325.170508 C349.584266,327.354284 354.908038,329.967229 360,332.984953 L360,332.984953 L360,332.984953 L359.02546,330.083856 L358.404734,329.781401 L350.484271,326.077873 L332.948764,317.819005 L312.893109,308.368836 C308.603893,309.245337 303.83051,308.461424 298.926775,306.646695 C279.957391,299.659372 259.200316,277.28389 258.045765,276.055553 L257.996107,276 L242,308.350318 Z" id="Path" fill="#228370" fill-rule="nonzero"></path>
            <path d="M242,308.350318 L249.771489,310.282325 L260.25555,292.906606 L261.428722,290.962254 C272.769385,291.264708 267.86565,308.30711 262.70121,320.83738 C259.678275,328.170366 256.568438,333.960215 256.568438,333.960215 C265.6,349.681692 284.290058,349.113817 286.872278,348.953331 L287.176433,348.953331 L299.590952,328.37406 L300.292372,327.213621 C311.297843,315.405539 330.428617,319.738667 344.07838,325.170508 C349.584266,327.354284 354.908038,329.967229 360,332.984953 L360,332.984953 L360,332.984953 L359.02546,330.083856 L358.404734,329.781401 L350.484271,326.077873 L332.948764,317.819005 L312.893109,308.368836 C308.603893,309.245337 303.83051,308.461424 298.926775,306.646695 C279.957391,299.659372 259.200316,277.28389 258.045765,276.055553 L257.996107,276 L242,308.350318 Z" id="Path" fill="#000000" fill-rule="nonzero" opacity="0.1"></path>
            <path d="M240,310.821298 L247.869714,312.780152 L249.089143,310.758714 L259.674286,293.191608 L259.957143,293.191608 C270.441714,293.74234 266.657714,308.975093 261.842857,321.272693 C259.757788,326.552612 257.393138,331.7188 254.758857,336.749521 C264.596,353.891062 285.747429,351.932208 285.747429,351.932208 L286.916571,349.992128 L299.029143,329.890401 C299.280571,329.621294 299.538286,329.358444 299.796,329.108111 C310.877714,318.268699 329.747429,321.598126 343.607429,326.310642 C349.597103,328.347454 355.413236,330.858818 361,333.820627 L361,333.820627 L359.032571,329.902918 L351.351429,326.773758 L341.438857,322.762174 L311.808,310.777489 C307.181714,311.716237 302.065143,310.677356 296.885714,308.443136 C278.317714,300.463776 258.832,277.358056 257.750857,276.056325 L257.700571,276 L240,310.821298 Z" id="Path" fill="#258D79" fill-rule="nonzero"></path>
            <path d="M322.5,374 C323.328427,374 324,373.328427 324,372.5 C324,371.671573 323.328427,371 322.5,371 C321.671573,371 321,371.671573 321,372.5 C321,373.328427 321.671573,374 322.5,374 Z" id="Path" fill="#535461" fill-rule="nonzero"></path>
            <path d="M254,336.717334 C263.834092,353.895053 284.978962,351.932065 284.978962,351.932065 L286.147742,349.98789 L286.455646,349.98789 L299.023176,329.078611 C310.101454,318.216322 328.965317,321.552775 342.821018,326.275237 L344.077771,325.823687 C344.392966,325.722384 344.699717,325.596567 344.995201,325.447395 C345.102025,325.340779 343.417976,324.299705 340.684538,322.731823 C338.579477,321.521418 335.852323,320.982066 332.8424,319.338925 L312.520704,309.749757 C308.178622,310.640314 303.346407,309.84383 298.382232,308 C297.653316,308.420192 296.899264,307.899656 296.126361,308.395106 C290.367819,312.070474 284.987836,316.305579 280.065057,321.03851 C275.553314,325.541468 267.365568,323.62238 261.685045,321.452431 L261.088087,321.214113 C259.001409,326.503175 256.635397,331.67817 254,336.717334 L254,336.717334 Z" id="Path" fill="#000000" fill-rule="nonzero" opacity="0.07"></path>
            <g id="Group" opacity="0.2" transform="translate(360.000000, 334.000000)" fill="#4D8AF0" fill-rule="nonzero">
                <path d="M5.00538462,24.9989189 C5.1087301,27.1231753 5.42389215,29.2342871 5.94692308,31.3058108 C6.3,32.5252703 6.79153846,33.712973 7.04769231,34.9514865 C7.84384615,38.8702703 6.27923077,43.4051351 8.88230769,46.5935135 C8.01768895,47.1233795 6.85438739,46.9547235 6.21,46.2060811 C5.62293726,45.4679101 5.30329296,44.5792821 5.29615385,43.6655405 C5.01923077,40.3056757 5.87769231,36.7489189 4.41692308,33.6558108 C3.64846154,32.0171622 2.26384615,30.6262162 1.80692308,28.8922973 C1.25307692,26.79 2.15307692,24.5924324 1.98,22.4393243 C1.84153846,20.6863514 0.996923077,19.0477027 0.54,17.3582432 C-0.927692308,11.877027 1.62,6.16716216 1.31538462,0.527162162 C5.64923077,6.93567568 4.39615385,17.4852703 5.00538462,24.9989189 Z" id="Path"></path>
            </g>
        </g>
    </g>
</svg>