<?xml version="1.0" encoding="UTF-8"?>
<svg width="97px" height="99px" viewBox="0 0 97 99" version="1.1" xmlns="http://www.w3.org/2000/svg" xmlns:xlink="http://www.w3.org/1999/xlink">
    <!-- Generator: Sketch 56.2 (81672) - https://sketch.com -->
    <title>icon</title>
    <desc>Created with Sketch.</desc>
    <g id="icon" stroke="none" stroke-width="1" fill="none" fill-rule="evenodd">
        <g id="undraw_Gardening_eaf3" fill-rule="nonzero">
            <path d="M79.3841234,27 C79.3841234,27 77.5413559,28.0576932 78.1083609,29.5384627 C78.1083609,29.5384627 80.0220047,30.1025661 80.8016387,31.5128174 C81.5812727,32.9230686 87.6057062,38 87.6057062,38 L92,35.8141013 C92,35.8141013 90.4713388,33.7838683 85.6364888,32.3662876 C85.6364888,32.3662876 82.7861589,29.3269151 81.7938994,28.7628117 C80.8016399,28.1987084 79.3841234,27 79.3841234,27 Z" id="Path" fill="#CBCDDA"></path>
            <path d="M79.3841234,27 C79.3841234,27 77.5413559,28.0576932 78.1083609,29.5384627 C78.1083609,29.5384627 80.0220047,30.1025661 80.8016387,31.5128174 C81.5812727,32.9230686 87.6057062,38 87.6057062,38 L92,35.8141013 C92,35.8141013 90.4713388,33.7838683 85.6364888,32.3662876 C85.6364888,32.3662876 82.7861589,29.3269151 81.7938994,28.7628117 C80.8016399,28.1987084 79.3841234,27 79.3841234,27 Z" id="Path" fill="#000000" opacity="0.05"></path>
            <path d="M16.2208575,94.1026015 C15.2897279,94.3202453 14.3157155,94.0661809 13.3566489,94.0553977 C12.3975823,94.0446146 11.2786657,94.4259066 11.0436088,95.3055298 C10.7278964,96.4869848 12.187933,97.3777122 13.4380441,97.6720349 C18.2900282,98.8143743 23.4262165,97.3317086 28.3851883,97.9364474 C30.4749091,98.1912857 32.5071067,98.8148571 34.6082479,98.9635735 C39.4175153,99.3039695 44.1164639,97.1403811 48.9322755,97.3842537 C51.3449504,97.5064313 53.689995,98.2312384 56.1029941,98.3475202 C61.8763858,98.6257395 67.5721992,95.4196547 73.2240775,96.5684336 C74.8200115,96.8928171 76.3183931,97.5541854 77.8997394,97.9372025 C81.8976244,98.9055278 86.1064076,98.0424442 90.1310369,97.1789232 C90.930196,97.0074558 91.8935992,96.6737019 91.9920787,95.9041589 C92.1007449,95.0550063 91.0700145,94.5225121 90.212473,94.2512216 C80.8352911,91.2846657 70.795724,89.7130554 61.0148541,91.0842026 C58.7890416,91.3962318 56.5696188,91.859916 54.3197295,91.829275 C49.3399817,91.7614604 44.7640751,89.3042214 39.8752935,88.4054025 C30.6118728,86.7022874 21.3499773,90.6757008 12.8460529,94.5455144" id="Path" fill="#93CEAE" opacity="0.1"></path>
            <path d="M29.828576,67 L27,67 L27,91.3261574 C27,91.3261574 45.2571432,97.3423033 63,91.3261574 L63,67 L29.828576,67 Z" id="Path" fill="#9ADE9A"></path>
            <ellipse id="Oval" fill="#3F3D56" cx="45" cy="67.5" rx="18" ry="2.5"></ellipse>
            <ellipse id="Oval" fill="#F9F9F9" opacity="0.1" cx="45" cy="67.5" rx="18" ry="2.5"></ellipse>
            <path d="M64.6539587,38.1701387 C60.1966375,54.7386795 44.9293079,65 44.9293079,65 C44.9293079,65 36.8887218,48.3984021 41.346043,31.8298613 C45.8033642,15.2613205 61.0706949,5 61.0706949,5 C61.0706949,5 69.1112753,21.6015979 64.6539587,38.1701387 Z" id="Path" fill="#9ADE9A"></path>
            <path d="M24.3460431,38.1701387 C28.803364,54.7386795 44.0706928,65 44.0706928,65 C44.0706928,65 52.1112773,48.3984021 47.6539575,31.8298613 C43.1966378,15.2613205 27.9293067,5 27.9293067,5 C27.9293067,5 19.8887221,21.6015979 24.3460431,38.1701387 Z" id="Path" fill="#32967D"></path>
            <path d="M31.0557979,34.8725882 C43.482205,46.74671 45,65 45,65 C45,65 26.3706092,64.0015348 13.9442021,52.1274084 C1.51779505,40.2532819 0,22 0,22 C0,22 18.6293908,22.9984664 31.0557979,34.8725882 Z" id="Path" fill="#9ADE9A"></path>
            <path d="M57.9442021,34.8725882 C45.517801,46.74671 44,65 44,65 C44,65 62.6293908,64.0015348 75.0557979,52.1274084 C87.482205,40.2532819 89,22 89,22 C89,22 70.3706092,22.9984664 57.9442021,34.8725882 Z" id="Path" fill="#9ADE9A"></path>
            <circle id="Oval" fill="#32967D" cx="44.5" cy="5.5" r="5.5"></circle>
            <path d="M11.100066,45.7793085 C11.4379286,47.16002 12.6117543,48 12.6117543,48 C12.6117543,48 13.2377971,46.6014029 12.8999355,45.2206915 C12.5620739,43.83998 11.3882481,43 11.3882481,43 C11.3882481,43 10.7622004,44.398596 11.100066,45.7793085 Z" id="Path" fill="#32967D"></path>
            <path d="M18.1157381,53.19753 C17.7562299,54.5782414 18.349054,56 18.349054,56 C18.349054,56 19.5247536,55.1831791 19.8842619,53.8024711 C20.2437701,52.421763 19.650946,51 19.650946,51 C19.650946,51 18.4752454,51.8168175 18.1157381,53.19753 Z" id="Path" fill="#32967D"></path>
            <path d="M73.1771846,63.2010178 C72.0726151,64.305588 72,66 72,66 C72,66 73.7182459,65.9035511 74.8228154,64.7989822 C75.9273849,63.6944132 76,62 76,62 C76,62 74.2817541,62.0964489 73.1771846,63.2010178 Z" id="Path" fill="#32967D"></path>
            <path d="M90.4475494,87 C90.4475494,87 90.645999,90.0877195 90.9767499,90.4385962 C91.3075007,90.789473 88,91 88,91 L88.4630499,87 L90.4475494,87 Z" id="Path" fill="#FFB9B9"></path>
            <path d="M90.4475494,87 C90.4475494,87 90.645999,90.0877195 90.9767499,90.4385962 C91.3075007,90.789473 88,91 88,91 L88.4630499,87 L90.4475494,87 Z" id="Path" fill="#000000" opacity="0.05"></path>
            <path d="M91.2885486,89.0304705 C91.2885486,89.0304705 90.8049994,89.0304705 89.0780376,89.9873364 C89.0780376,89.9873364 87.903703,89.7665217 87.4201538,88 C87.4201538,88 85.9695051,90.6497819 85.0024067,90.7969934 C84.0353083,90.9442049 82.1701872,91.0914126 83.413602,92.857938 C84.6570169,94.6244634 91.979334,93.8148028 91.979334,93.8148028 C91.979334,93.8148028 92.186569,89.5457057 91.2885486,89.0304705 Z" id="Path" fill="#CBCDDA"></path>
            <path d="M91.2885486,89.0304705 C91.2885486,89.0304705 90.8049994,89.0304705 89.0780376,89.9873364 C89.0780376,89.9873364 87.903703,89.7665217 87.4201538,88 C87.4201538,88 85.9695051,90.6497819 85.0024067,90.7969934 C84.0353083,90.9442049 82.1701872,91.0914126 83.413602,92.857938 C84.6570169,94.6244634 91.979334,93.8148028 91.979334,93.8148028 C91.979334,93.8148028 92.186569,89.5457057 91.2885486,89.0304705 Z" id="Path" fill="#000000" opacity="0.05"></path>
            <path d="M90,91.6281581 L89.4716982,93 L86,92.0613716 L86.1977354,90.6996398 L86.2452822,90.3711163 L86.3773583,89.4620935 C86.3773583,89.4620935 89.3207546,88.7400724 89.3207546,89.101083 C89.3604373,89.3986991 89.4250494,89.6927842 89.5139673,89.9805 C89.6347105,90.4245456 89.7864102,90.930684 89.8883036,91.2635344 C89.9547191,91.4837537 90,91.6281581 90,91.6281581 Z" id="Path" fill="#FFB9B9"></path>
            <path d="M88.793098,73.031674 C88.5701793,73.3934356 88.3175368,74.0721646 88.7867314,74.9205853 C88.925695,75.1659535 89.0966737,75.3933489 89.2955412,75.5972835 C90.8524151,77.226243 91.2770115,80.891401 91.2770115,80.891401 L91.2770115,86.7963805 L90.2155063,86.8744315 L88.5170982,87 L85.9694867,76.9547507 C85.9694867,76.9547507 84.4833804,69.6244347 85.1910497,68.3348414 C85.8987191,67.0452481 86.5356231,58.9683257 86.5356231,58.9683257 L87.1229982,58.3846134 L88.5171042,57 L92.5508244,57 C92.8735142,57.2220543 93.1414273,57.5093623 93.3356363,57.8416265 C94.0128645,58.9167431 94.6207585,61.152488 92.763125,65.2805431 C89.8616788,71.7285094 89.0124741,72.746607 89.0124741,72.746607 C88.9283259,72.8333521 88.8547283,72.9289881 88.793098,73.031674 L88.793098,73.031674 Z" id="Path" fill="#363636"></path>
            <path d="M88.793098,73.031674 C88.5701793,73.3934356 88.3175368,74.0721646 88.7867314,74.9205853 C88.925695,75.1659535 89.0966737,75.3933489 89.2955412,75.5972835 C90.8524151,77.226243 91.2770115,80.891401 91.2770115,80.891401 L91.2770115,86.7963805 L90.2155063,86.8744315 L88.5170982,87 L85.9694867,76.9547507 C85.9694867,76.9547507 84.4833804,69.6244347 85.1910497,68.3348414 C85.8987191,67.0452481 86.5356231,58.9683257 86.5356231,58.9683257 L87.1229982,58.3846134 L88.5171042,57 L92.5508244,57 C92.8735142,57.2220543 93.1414273,57.5093623 93.3356363,57.8416265 C94.0128645,58.9167431 94.6207585,61.152488 92.763125,65.2805431 C89.8616788,71.7285094 89.0124741,72.746607 89.0124741,72.746607 C88.9283259,72.8333521 88.8547283,72.9289881 88.793098,73.031674 L88.793098,73.031674 Z" id="Path" fill="#363636" opacity="0.05"></path>
            <path d="M90,90.4302215 L87,91 L87.1212195,89.6740399 C87.1212195,89.6740399 89.8226694,88.6208526 89.8226694,89.1474462 C89.8590901,89.5815686 89.9183911,90.0105404 90,90.4302215 L90,90.4302215 Z" id="Path" fill="#000000" opacity="0.1"></path>
            <path d="M88.5303719,64.4816201 C88.5303719,64.4816201 88.7059702,69.9108262 88.7348869,73.3233947 C88.7412314,74.0951533 88.7405249,74.7641456 88.7285424,75.2427879 C88.732589,75.4961454 88.7134707,75.7493496 88.6714155,75.9993777 C88.4598495,76.6200893 88.8829804,77.999467 88.8829804,77.999467 C90.6460242,82.55139 90.1523721,86.5515731 90.1523721,86.5515731 L90.1523721,89.5861881 L86.7673281,90 C86.7673281,90 87.3315015,89.5861881 85.7800226,85.5860096 C84.888627,83.2879754 84.6953975,81.0361491 84.6925832,79.5353918 C84.6843346,78.713938 84.516325,77.9015225 84.1975192,77.141495 C84.0998781,76.8851946 84.0391173,76.6168711 84.0169787,76.3442181 C83.8759351,74.9648462 83.2412393,73.2406316 83.2412393,73.2406316 C83.2412393,73.2406316 81.5487167,68.3438612 81.1255869,64.757497 C80.9300236,63.0504116 80.962977,61.3256711 81.223613,59.6269222 C81.2860682,59.1951264 81.3710397,58.7667331 81.4781955,58.3434174 C81.4781955,58.3434174 88.3724036,54.1004682 90.9753553,57.0330136 C91.2258311,57.3198979 91.4244915,57.6464244 91.5628073,57.9985747 C91.70587,58.3464755 91.8172559,58.7060461 91.8956686,59.0731013 C92.7059628,62.9650018 88.5303719,64.4816201 88.5303719,64.4816201 Z" id="Path" fill="#363636"></path>
            <circle id="Oval" fill="#FFB9B9" cx="88.5" cy="30.5" r="3.5"></circle>
            <path d="M86.2174806,32.165773 C86.2174806,32.165773 87.627707,36.2730067 86.2174806,38.4310451 C84.8072542,40.5890835 90.7167758,39.8929427 90.7167758,39.8929427 L93,37.0387623 C93,37.0387623 90.3138535,37.0387623 90.1795461,32.165773 C90.0452386,27.2927837 86.2174806,32.165773 86.2174806,32.165773 Z" id="Path" fill="#FFB9B9"></path>
            <path d="M93,57.9647839 C92.4989232,58.155515 91.9836153,58.2975349 91.4599951,58.3892124 C90.5994486,58.5352561 89.5840726,58.5405814 88.9910139,57.9647839 C88.6391854,57.623262 87.7724203,57.5814238 86.7307786,57.6909547 C84.5368968,57.9221887 81.5674761,58.8227713 81,59 C81.0612142,58.5237882 81.1444973,58.0513289 81.2495238,57.5844695 C81.2495238,57.5844695 88.0067396,52.9050758 90.5579689,56.1392729 L92.032314,56.1392729 C92.3474957,56.3881204 92.6091753,56.7100953 92.7988656,57.0824507 C92.9260361,57.6879142 93,57.9647839 93,57.9647839 Z" id="Path" fill="#000000" opacity="0.1"></path>
            <path d="M90,91.8072808 L89.4716982,93 L86,92.1839292 L86.1977354,91 C86.7939637,92.0973006 87.8113202,92.2467044 87.8113202,92.2467044 C88.9086821,91.772124 89.5464145,91.5737588 89.8882998,91.4902664 C89.9547191,91.6817314 90,91.8072808 90,91.8072808 Z" id="Path" fill="#000000" opacity="0.1"></path>
            <path d="M91.2885492,91.030471 C91.2885492,91.030471 90.8049999,91.030471 89.0780369,91.9873375 C89.0780369,91.9873375 87.9037034,91.7665226 87.4201542,90 C87.4201542,90 85.9695053,92.6497833 85.0024069,92.7969948 C84.0353084,92.9442064 82.1701883,93.0914155 83.413601,94.8579381 C84.6570136,96.6244607 91.9793335,95.8148046 91.9793335,95.8148046 C91.9793335,95.8148046 92.1865708,91.5457065 91.2885492,91.030471 Z" id="Path" fill="#CBCDDA"></path>
            <path d="M74,31 C74,31 74.1189992,28.7994679 76.6137506,29.0148369 C76.7555877,29.0272966 76.8813457,29.1045887 76.948942,29.2208488 C77.0165383,29.337109 77.0170444,29.4769806 76.9502908,29.5936585 L76.4387887,30.4861933 L74,31 Z" id="Path" fill="#FFB9B9"></path>
            <path d="M90.1694192,38.7093142 C90.1694192,38.7093142 86.8122083,38.1415619 85.9215195,37.4318715 C85.9215195,37.4318715 85.236375,38.7802826 84.0031186,38.0705935 C82.7698622,37.3609043 79.8922481,37.4318715 79.8922481,37.4318715 C79.8922481,37.4318715 77.49424,36.0834605 77.0146386,33.0317961 C77.0146386,33.0317961 76.5350372,31.1866023 76.6720663,30.6898197 C76.6720663,30.6898197 74.8906888,28.7736575 74,31.3285344 C74.3425734,33.1027586 74.6166248,32.9608205 74.5481165,34.3802 L75.6443484,37.5028352 C75.6443484,37.5028352 75.7128624,38.5673702 77.6997843,39.9867497 C79.6867061,41.4061292 81.9476828,43.6061676 81.9476828,43.6061676 C81.9476828,43.6061676 80.7486793,44.2803731 81.1940231,47.3675223 C81.7383511,51.140832 80.919966,56.5225202 80.919966,56.5225202 L80.919966,60 C80.919966,60 87.7714168,57.9418997 88.9361627,59.0064347 C90.1009086,60.0709696 92.9100041,59.0064347 92.9100041,59.0064347 C92.9100041,59.0064347 92.5674319,57.7999617 92.0878305,54.8902342 C91.6082291,51.9805067 92.1563445,49.1417476 92.1563445,49.1417476 C92.1563445,49.1417476 93.937722,44.2448883 94.7598968,42.2577565 C95.5820716,40.2706247 94.1432663,37.5738084 92.7044621,36.5802384 C91.265658,35.5866683 90.7297785,36.1832002 90.7297785,36.1832002 C90.7297785,36.1832002 93.2525718,38.0705935 90.1694192,38.7093142 Z" id="Path" fill="#CBCDDA"></path>
            <path d="M84.4437335,29.3852707 C84.4425558,29.5288015 84.4671339,29.6714094 84.5163358,29.8065259 C84.5981176,29.9603102 84.7097257,30.096824 84.8448488,30.2083475 C85.3694113,30.7129751 85.8295884,31.3126601 86.0141816,32.011433 C86.139157,32.4845251 86.1324367,32.9803372 86.1249135,33.4691138 C86.0944105,35.4490228 86.0101543,37.5860359 84.7678983,39.1434283 C84.3113442,39.7158016 83.724486,40.1709656 83.1727577,40.6553368 C83.095868,40.7109939 83.0375319,40.7879064 83.0051693,40.8762916 C82.9900268,40.9704351 83.0083885,41.0668377 83.0571474,41.1491863 C83.3131216,41.6733204 83.853008,41.994783 84.3640923,42.2864749 C84.5976955,42.4198002 84.8437979,42.5568054 85.1136805,42.5654101 C85.7505725,42.5857163 86.1714632,41.9234211 86.7511249,41.6628792 C87.5949082,41.2836225 88.5419202,41.8115128 89.3794216,42.204033 C89.9860598,42.4882736 90.6223141,42.7066932 91.276952,42.8554357 C92.1734752,43.0590387 93.1871873,43.1090472 93.9419794,42.591111 C94.3783416,42.2885038 94.676475,41.8292529 94.7721398,41.3123147 C94.8327438,40.9753679 94.8233469,40.584219 95.0824244,40.3560838 C95.2158928,40.2385552 95.3980786,40.1897593 95.542532,40.0855764 C95.7665585,39.9240044 95.8731621,39.6521187 95.9685479,39.395362 L96.8313531,37.0728765 C96.9427365,36.8274618 97.0002062,36.5616546 97,36.2928594 C96.9586219,35.7336617 96.4346776,35.3277032 95.9086668,35.1126951 C95.382656,34.8976869 94.8008373,34.7916837 94.3382975,34.4645209 C93.556121,33.9112746 93.3146983,32.8781076 93.2444341,31.9325019 C93.1962048,31.2830688 93.2009156,30.6308754 93.2585212,29.9821831 C93.3439929,29.0201825 93.5349843,27.9958402 93.1002792,27.1301619 C92.6360161,26.2056168 91.5944118,25.733565 90.6299484,25.3307771 C90.2595841,25.176103 89.8792646,25.0191227 89.4773429,25.0016586 C89.0520394,24.9831797 88.6378479,25.1223059 88.2356265,25.2596049 C87.5964857,25.4777768 86.9479856,25.7602853 86.2881538,25.9082628 C85.9175039,25.9913875 85.5112928,25.929188 85.153805,26.0611826 C83.8403702,26.5461462 84.4437335,28.3442558 84.4437335,29.3852707 Z" id="Path" fill="#000000" opacity="0.1"></path>
            <path d="M84.4437335,29.3852653 C84.4425557,29.5287961 84.4671339,29.6714041 84.5163358,29.8065206 C84.5981177,29.9603049 84.7097258,30.0968187 84.8448488,30.2083422 C85.3694114,30.7129698 85.8295884,31.3126548 86.0141816,32.0114277 C86.139157,32.4845199 86.1324367,32.9803321 86.1249135,33.4691098 C86.0944105,35.4490177 86.0101543,37.586031 84.7678983,39.1434235 C84.3113442,39.7157968 83.7244861,40.1709608 83.1727577,40.655332 C83.095868,40.7109892 83.0375319,40.7879016 83.0051693,40.8762869 C82.9900267,40.9704304 83.0083885,41.066833 83.0571475,41.1491816 C83.3131216,41.6733157 83.853008,41.9947783 84.3640923,42.2864714 C84.5976956,42.4197956 84.8437979,42.5568007 85.1136806,42.5654055 C85.7505726,42.5857116 86.1714633,41.9234164 86.751125,41.6628745 C87.5949082,41.2836178 88.5419202,41.8115081 89.3794216,42.2040283 C89.9860596,42.4882706 90.6223139,42.7066917 91.2769521,42.8554357 C92.1734752,43.0590387 93.1871873,43.1090473 93.9419795,42.591111 C94.3783416,42.2885038 94.676475,41.8292529 94.7721399,41.3123146 C94.8327438,40.9753678 94.8233469,40.5842188 95.0824244,40.3560837 C95.2158928,40.238555 95.3980786,40.1897603 95.542532,40.0855762 C95.7665585,39.9240054 95.8731621,39.6521185 95.9685479,39.3953618 L96.8313531,37.0728762 C96.9427365,36.8274614 97.0002062,36.5616543 97,36.292859 C96.9586219,35.7336613 96.4346776,35.3277028 95.9086668,35.1126958 C95.382656,34.8976888 94.8008373,34.7916833 94.3382975,34.4645204 C93.556121,33.9112741 93.3146983,32.8781071 93.2444341,31.9325013 C93.1962049,31.2830681 93.2009157,30.6308748 93.2585212,29.9821824 C93.3439929,29.0201829 93.5349843,27.9958394 93.1002792,27.130161 C92.6360161,26.2056159 91.5944118,25.733564 90.6299484,25.3307762 C90.2595842,25.1761021 89.8792646,25.0191218 89.4773429,25.0016588 C89.0520394,24.9831787 88.6378479,25.1223049 88.2356265,25.259604 C87.5964857,25.4777758 86.9479857,25.7602844 86.2881538,25.9082619 C85.9175039,25.9913877 85.5112929,25.9291871 85.153805,26.0611828 C83.8403702,26.5461419 84.4437335,28.3442504 84.4437335,29.3852653 Z" id="Path" fill="#B96B6B"></path>
            <path d="M82,47.9929161 C82,47.9929161 82.555496,47.7893586 85.3406972,47.1574344 C88.1258984,46.5255102 93,48 93,48" id="Path" fill="#000000" opacity="0.05"></path>
            <path d="M5.10006596,59.7793085 C5.43792857,61.16002 6.6117543,62 6.6117543,62 C6.6117543,62 7.23779711,60.6014029 6.89993548,59.2206915 C6.56207385,57.83998 5.38824813,57 5.38824813,57 C5.38824813,57 4.7622004,58.398596 5.10006596,59.7793085 Z" id="Path" fill="#32967D"></path>
        </g>
    </g>
</svg>