<?xml version="1.0" encoding="UTF-8"?>
<svg width="23px" height="36px" viewBox="0 0 23 36" version="1.1" xmlns="http://www.w3.org/2000/svg" xmlns:xlink="http://www.w3.org/1999/xlink">
    <!-- Generator: Sketch 56.2 (81672) - https://sketch.com -->
    <title>logo</title>
    <desc>Created with Sketch.</desc>
    <g id="logo" stroke="none" stroke-width="1" fill="none" fill-rule="evenodd">
        <g id="logo-gradient" transform="translate(-3.000000, 0.000000)">
            <g id="logo" stroke-width="1" fill-rule="evenodd" transform="translate(3.500000, 0.000000)">
                <path d="M19.416892,26.9147091 L1.90753219,26.9148477 C1.38062431,26.9148519 0.903876748,27.1921371 0.558644594,27.6400561 C0.21341244,28.087975 -0.000304308491,28.7065277 0.000114004574,29.3896135 L7.20291584e-05,31.1129357 L1.99840144e-14,31.3052166 C-0.000440813494,35.4053727 2.56158046,35.8494485 5.72218472,35.8494235 L15.6019184,35.8493453 C17.0284679,35.849334 21.290045,35.0475967 21.2514908,30.96 C21.2425482,30.0118823 21.2535803,30.7225689 21.2514908,30.24 C21.244572,28.6420813 21.2514859,29.8501285 21.2514908,28.8 C21.2514973,27.4327344 20.4702863,26.9152476 19.416892,26.9147091 Z" id="Shape" fill="#78C885" fill-rule="nonzero"></path>
                <path d="M18.55,6.48 C18.55,6.48 16.1,10.64925 16.1,12.24 C16.1,13.83075 17.1971406,15.12 18.55,15.12 C19.9028594,15.12 21,13.83075 21,12.24 C21,10.64925 18.55,6.48 18.55,6.48 Z" id="Path" fill="#258D79" fill-rule="nonzero"></path>
                <path d="M10.5,0 C10.5,0 7,6.253875 7,8.64 C7,11.026125 8.56734375,12.96 10.5,12.96 C12.4326562,12.96 14,11.026125 14,8.64 C14,6.253875 10.5,0 10.5,0 Z" id="Path-Copy" fill="#258D79" fill-rule="nonzero"></path>
                <path d="M3.15,6.48 C3.15,6.48 0.7,10.64925 0.7,12.24 C0.7,13.83075 1.79714063,15.12 3.15,15.12 C4.50285937,15.12 5.6,13.83075 5.6,12.24 C5.6,10.64925 3.15,6.48 3.15,6.48 Z" id="Path-Copy-2" fill="#258D79" fill-rule="nonzero"></path>
                <path d="M19.8109618,10.08 C19.8109618,10.08 19.5146941,12.1919966 19.6539624,13.2981983 C19.7539158,14.0921236 20.4017973,13.5724406 20.2641726,12.4338885 C20.1233933,11.2692389 19.8109618,10.08 19.8109618,10.08 Z" id="Path" fill="#FFFFFF" fill-rule="nonzero"></path>
                <path d="M1.40427431,9.36202259 C1.40427431,9.36202259 1.32740213,10.7822653 1.55604533,11.759503 C1.72014347,12.4608704 2.2859649,12.4244188 2.05668011,11.4177366 C1.8221397,10.3879794 1.40427431,9.36202259 1.40427431,9.36202259 Z" id="Path-Copy-3" fill="#FFFFFF" fill-rule="nonzero" transform="translate(1.751230, 10.799526) rotate(20.000000) translate(-1.751230, -10.799526) "></path>
                <path d="M11.2,2.88 C11.2,2.88 11.4908301,5.8500704 12.2162988,7.78354938 C12.7369707,9.17121494 13.7816605,8.87436085 13.0459911,6.88018096 C12.2934589,4.84029096 11.2,2.88 11.2,2.88 Z" id="Path" fill="#FFFFFF" fill-rule="nonzero"></path>
            </g>
            <path d="M23.5362617,15.8399978 C22.5480974,15.8452013 18.9421825,16.0864005 16.2597793,19.1599897 C15.132782,20.3451855 14.4440614,21.6919808 14,22.9543764 C13.5559386,21.6919808 12.867218,20.3451855 11.7402207,19.1599897 C9.05781751,16.0864005 5.45190262,15.8452013 4.46373834,15.8399978 C4.31367621,15.8392013 4.1986626,15.9760008 4.20001175,16.1528002 C4.20785007,17.2695963 4.44298145,21.1983825 7.22066223,24.1247722 C10.0796692,27.3975608 12.9111137,27.3599805 14,27.3599805 C15.0888863,27.3599805 17.9196502,27.3979608 20.7793378,24.1247722 C23.5573588,21.1979825 23.7921499,17.2695963 23.7999883,16.1528002 C23.8013374,15.9760008 23.6863238,15.8392013 23.5362617,15.8399978 Z M16.6873458,20.1797409 C16.718391,20.1486846 16.7598231,20.1386719 16.7999966,20.1137077 C16.303511,17.8106495 15.23806,15.7672979 13.8787643,14.4877122 C13.7546429,14.3707626 13.5459619,14.3707626 13.4215385,14.4877122 C12.0628469,15.7663179 10.9973959,17.8077094 10.5000042,20.1088076 C11.1151753,20.4910172 11.7230985,20.9627358 12.2884398,21.5589175 C12.8030432,22.0576852 13.5474937,23.1421679 13.936352,23.7599859 C14.3235142,23.1442037 16.2272584,20.6399906 16.6873458,20.1797409 Z" id="Shape" fill="#75C880" fill-rule="nonzero"></path>
        </g>
    </g>
</svg>